<svg xmlns="http://www.w3.org/2000/svg" viewBox="148 -1 35 35" width="32" height="32">
  <rect x="148" y="-1" width="35" height="35" rx="6" fill="#0C2D1C"/>
  <path d="M174.065 20.8956C174.946 20.8956 175.66 20.1817 175.66 19.3011C175.66 18.4204 174.946 17.7065 174.065 17.7065C173.185 17.7065 172.471 18.4204 172.471 19.3011C172.471 20.1817 173.185 20.8956 174.065 20.8956Z" fill="#FFFFFF"/>
  <path d="M160.661 13.3788C161.685 13.3788 162.515 12.5488 162.515 11.5251C162.515 10.5013 161.685 9.67139 160.661 9.67139C159.637 9.67139 158.807 10.5013 158.807 11.5251C158.807 12.5488 159.637 13.3788 160.661 13.3788Z" fill="#FFFFFF"/>
  <path d="M154.795 9.26481C155.427 9.26481 155.939 8.75235 155.939 8.1202C155.939 7.48805 155.427 6.97559 154.795 6.97559C154.162 6.97559 153.65 7.48805 153.65 8.1202C153.65 8.75235 154.162 9.26481 154.795 9.26481Z" fill="#FFFFFF"/>
  <path d="M171.259 15.9388C171.261 14.2829 169.921 12.9386 168.265 12.9363C166.609 12.934 165.265 14.2745 165.262 15.9304C165.26 17.5863 166.601 18.9306 168.257 18.9329C169.913 18.9352 171.257 17.5947 171.259 15.9388Z" fill="#FFFFFF"/>
  <path d="M153.94 32.0597C154.572 32.0597 155.084 31.5473 155.084 30.9151C155.084 30.283 154.572 29.7705 153.94 29.7705C153.308 29.7705 152.795 30.283 152.795 30.9151C152.795 31.5473 153.308 32.0597 153.94 32.0597Z" fill="#FFFFFF"/>
  <path d="M159.73 29.1661C160.61 29.1661 161.324 28.4522 161.324 27.5716C161.324 26.6909 160.61 25.9771 159.73 25.9771C158.849 25.9771 158.135 26.6909 158.135 27.5716C158.135 28.4522 158.849 29.1661 159.73 29.1661Z" fill="#FFFFFF"/>
  <path d="M166.9 26.0126C168.325 26.0126 169.48 24.8572 169.48 23.4318C169.48 22.0065 168.325 20.8511 166.9 20.8511C165.474 20.8511 164.319 22.0065 164.319 23.4318C164.319 24.8572 165.474 26.0126 166.9 26.0126Z" fill="#FFFFFF"/>
  <path d="M179.855 17.0934C180.487 17.0934 181 16.581 181 15.9488C181 15.3167 180.487 14.8042 179.855 14.8042C179.223 14.8042 178.711 15.3167 178.711 15.9488C178.711 16.581 179.223 17.0934 179.855 17.0934Z" fill="#FFFFFF"/>
  <path d="M153.942 1.97247C154.486 1.97247 154.928 1.53092 154.928 0.986237C154.928 0.441553 154.486 0 153.942 0C153.397 0 152.955 0.441553 152.955 0.986237C152.955 1.53092 153.397 1.97247 153.942 1.97247Z" fill="#FFFFFF"/>
  <path d="M159.73 5.92003C160.61 5.92003 161.324 5.20613 161.324 4.32549C161.324 3.44486 160.61 2.73096 159.73 2.73096C158.849 2.73096 158.135 3.44486 158.135 4.32549C158.135 5.20613 158.849 5.92003 159.73 5.92003Z" fill="#FFFFFF"/>
  <path d="M166.9 11.0497C168.325 11.0497 169.48 9.89428 169.48 8.46896C169.48 7.04364 168.325 5.88818 166.9 5.88818C165.474 5.88818 164.319 7.04364 164.319 8.46896C164.319 9.89428 165.474 11.0497 166.9 11.0497Z" fill="#FFFFFF"/>
  <path d="M174.065 14.171C174.946 14.171 175.66 13.4571 175.66 12.5765C175.66 11.6958 174.946 10.9819 174.065 10.9819C173.185 10.9819 172.471 11.6958 172.471 12.5765C172.471 13.4571 173.185 14.171 174.065 14.171Z" fill="#FFFFFF"/>
  <path d="M160.661 22.2045C161.685 22.2045 162.515 21.3745 162.515 20.3508C162.515 19.327 161.685 18.4971 160.661 18.4971C159.637 18.4971 158.807 19.327 158.807 20.3508C158.807 21.3745 159.637 22.2045 160.661 22.2045Z" fill="#FFFFFF"/>
  <path d="M154.795 24.8966C155.427 24.8966 155.939 24.3842 155.939 23.752C155.939 23.1199 155.427 22.6074 154.795 22.6074C154.162 22.6074 153.65 23.1199 153.65 23.752C153.65 24.3842 154.162 24.8966 154.795 24.8966Z" fill="#FFFFFF"/>
</svg>
